<?xml version="1.0" encoding="UTF-8"?>
<!DOCTYPE svg PUBLIC "-//W3C//DTD SVG 1.1//EN" "http://www.w3.org/Graphics/SVG/1.1/DTD/svg11.dtd">
<svg xmlns="http://www.w3.org/2000/svg" version="1.1" width="512px" height="512px" style="shape-rendering:geometricPrecision; text-rendering:geometricPrecision; image-rendering:optimizeQuality; fill-rule:evenodd; clip-rule:evenodd" xmlns:xlink="http://www.w3.org/1999/xlink">
<g><path style="opacity:0.981" fill="#460c68" d="M 361.5,361.5 C 361.5,351.167 361.5,340.833 361.5,330.5C 371.167,330.5 380.833,330.5 390.5,330.5C 390.5,320.5 390.5,310.5 390.5,300.5C 400.5,300.5 410.5,300.5 420.5,300.5C 421.499,250.336 421.832,200.003 421.5,149.5C 411.5,149.5 401.5,149.5 391.5,149.5C 391.5,139.5 391.5,129.5 391.5,119.5C 361.167,119.5 330.833,119.5 300.5,119.5C 300.5,109.5 300.5,99.5 300.5,89.5C 330.5,89.5 360.5,89.5 390.5,89.5C 390.5,79.5 390.5,69.5 390.5,59.5C 420.833,59.5 451.167,59.5 481.5,59.5C 481.5,89.8333 481.5,120.167 481.5,150.5C 471.5,150.5 461.5,150.5 451.5,150.5C 451.5,200.833 451.5,251.167 451.5,301.5C 441.5,301.5 431.5,301.5 421.5,301.5C 421.5,311.5 421.5,321.5 421.5,331.5C 411.5,331.5 401.5,331.5 391.5,331.5C 391.5,341.5 391.5,351.5 391.5,361.5C 381.5,361.5 371.5,361.5 361.5,361.5 Z M 391.5,119.5 C 391.5,109.833 391.5,100.167 391.5,90.5C 401.167,90.5 410.833,90.5 420.5,90.5C 420.5,100.167 420.5,109.833 420.5,119.5C 410.833,119.5 401.167,119.5 391.5,119.5 Z M 421.5,149.5 C 421.5,139.833 421.5,130.167 421.5,120.5C 431.167,120.5 440.833,120.5 450.5,120.5C 450.5,130.167 450.5,139.833 450.5,149.5C 440.833,149.5 431.167,149.5 421.5,149.5 Z"/></g>
<g><path style="opacity:0.982" fill="#460c68" d="M 210.5,119.5 C 180.167,119.5 149.833,119.5 119.5,119.5C 119.5,109.5 119.5,99.5 119.5,89.5C 149.833,89.5 180.167,89.5 210.5,89.5C 210.5,99.5 210.5,109.5 210.5,119.5 Z"/></g>
<g><path style="opacity:0.974" fill="#460b68" d="M 119.5,119.5 C 119.5,129.5 119.5,139.5 119.5,149.5C 109.5,149.5 99.5,149.5 89.5,149.5C 89.5,139.5 89.5,129.5 89.5,119.5C 99.5,119.5 109.5,119.5 119.5,119.5 Z"/></g>
<g><path style="opacity:0.753" fill="#954386" d="M 119.5,119.5 C 149.833,119.5 180.167,119.5 210.5,119.5C 210.5,119.833 210.5,120.167 210.5,120.5C 180.5,120.5 150.5,120.5 120.5,120.5C 120.5,130.5 120.5,140.5 120.5,150.5C 110.5,150.5 100.5,150.5 90.5,150.5C 90.5,200.5 90.5,250.5 90.5,300.5C 89.5011,250.336 89.1678,200.003 89.5,149.5C 99.5,149.5 109.5,149.5 119.5,149.5C 119.5,139.5 119.5,129.5 119.5,119.5 Z"/></g>
<g><path style="opacity:0.983" fill="#460c68" d="M 210.5,119.5 C 220.5,119.5 230.5,119.5 240.5,119.5C 240.5,129.5 240.5,139.5 240.5,149.5C 230.5,149.5 220.5,149.5 210.5,149.5C 210.5,139.833 210.5,130.167 210.5,120.5C 210.5,120.167 210.5,119.833 210.5,119.5 Z"/></g>
<g><path style="opacity:0.983" fill="#460c68" d="M 300.5,119.5 C 300.5,119.833 300.5,120.167 300.5,120.5C 300.5,130.167 300.5,139.833 300.5,149.5C 290.5,149.5 280.5,149.5 270.5,149.5C 270.5,139.5 270.5,129.5 270.5,119.5C 280.5,119.5 290.5,119.5 300.5,119.5 Z"/></g>
<g><path style="opacity:0.753" fill="#954386" d="M 300.5,120.5 C 300.5,120.167 300.5,119.833 300.5,119.5C 330.833,119.5 361.167,119.5 391.5,119.5C 391.5,129.5 391.5,139.5 391.5,149.5C 401.5,149.5 411.5,149.5 421.5,149.5C 421.832,200.003 421.499,250.336 420.5,300.5C 420.5,250.5 420.5,200.5 420.5,150.5C 410.5,150.5 400.5,150.5 390.5,150.5C 390.5,140.5 390.5,130.5 390.5,120.5C 360.5,120.5 330.5,120.5 300.5,120.5 Z"/></g>
<g><path style="opacity:1" fill="#fe8eb0" d="M 210.5,120.5 C 210.5,130.167 210.5,139.833 210.5,149.5C 220.319,150.494 230.319,150.827 240.5,150.5C 240.5,160.5 240.5,170.5 240.5,180.5C 250.5,180.5 260.5,180.5 270.5,180.5C 270.5,170.5 270.5,160.5 270.5,150.5C 280.681,150.827 290.681,150.494 300.5,149.5C 300.5,139.833 300.5,130.167 300.5,120.5C 330.5,120.5 360.5,120.5 390.5,120.5C 390.5,130.5 390.5,140.5 390.5,150.5C 400.5,150.5 410.5,150.5 420.5,150.5C 420.5,200.5 420.5,250.5 420.5,300.5C 410.5,300.5 400.5,300.5 390.5,300.5C 390.5,310.5 390.5,320.5 390.5,330.5C 380.833,330.5 371.167,330.5 361.5,330.5C 360.506,340.319 360.173,350.319 360.5,360.5C 350.319,360.173 340.319,360.506 330.5,361.5C 330.5,371.167 330.5,380.833 330.5,390.5C 320.5,390.5 310.5,390.5 300.5,390.5C 300.5,400.833 300.5,411.167 300.5,421.5C 290.5,421.5 280.5,421.5 270.5,421.5C 270.5,431.5 270.5,441.5 270.5,451.5C 260.5,451.5 250.5,451.5 240.5,451.5C 240.5,441.5 240.5,431.5 240.5,421.5C 230.5,421.5 220.5,421.5 210.5,421.5C 210.5,411.167 210.5,400.833 210.5,390.5C 200.5,390.5 190.5,390.5 180.5,390.5C 180.5,380.833 180.5,371.167 180.5,361.5C 190.681,361.827 200.681,361.494 210.5,360.5C 210.5,350.5 210.5,340.5 210.5,330.5C 200.5,330.5 190.5,330.5 180.5,330.5C 180.5,340.5 180.5,350.5 180.5,360.5C 170.5,360.5 160.5,360.5 150.5,360.5C 150.827,350.319 150.494,340.319 149.5,330.5C 139.833,330.5 130.167,330.5 120.5,330.5C 120.5,320.5 120.5,310.5 120.5,300.5C 110.5,300.5 100.5,300.5 90.5,300.5C 90.5,250.5 90.5,200.5 90.5,150.5C 100.5,150.5 110.5,150.5 120.5,150.5C 120.5,140.5 120.5,130.5 120.5,120.5C 150.5,120.5 180.5,120.5 210.5,120.5 Z"/></g>
<g><path style="opacity:0.983" fill="#460c68" d="M 89.5,149.5 C 89.1678,200.003 89.5011,250.336 90.5,300.5C 100.5,300.5 110.5,300.5 120.5,300.5C 120.5,310.5 120.5,320.5 120.5,330.5C 130.167,330.5 139.833,330.5 149.5,330.5C 149.5,340.833 149.5,351.167 149.5,361.5C 139.5,361.5 129.5,361.5 119.5,361.5C 119.5,351.5 119.5,341.5 119.5,331.5C 109.5,331.5 99.5,331.5 89.5,331.5C 89.5,321.5 89.5,311.5 89.5,301.5C 79.5,301.5 69.5,301.5 59.5,301.5C 59.5,250.833 59.5,200.167 59.5,149.5C 69.5,149.5 79.5,149.5 89.5,149.5 Z"/></g>
<g><path style="opacity:0.981" fill="#490e69" d="M 210.5,149.5 C 220.5,149.5 230.5,149.5 240.5,149.5C 250.5,149.5 260.5,149.5 270.5,149.5C 280.5,149.5 290.5,149.5 300.5,149.5C 290.681,150.494 280.681,150.827 270.5,150.5C 270.5,160.5 270.5,170.5 270.5,180.5C 260.5,180.5 250.5,180.5 240.5,180.5C 240.5,170.5 240.5,160.5 240.5,150.5C 230.319,150.827 220.319,150.494 210.5,149.5 Z"/></g>
<g><path style="opacity:0.999" fill="#450c68" d="M 240.5,300.5 C 240.5,290.5 240.5,280.5 240.5,270.5C 250.5,270.5 260.5,270.5 270.5,270.5C 270.5,280.5 270.5,290.5 270.5,300.5C 260.5,300.5 250.5,300.5 240.5,300.5 Z"/></g>
<g><path style="opacity:0.999" fill="#460c68" d="M 240.5,300.5 C 240.5,310.5 240.5,320.5 240.5,330.5C 230.5,330.5 220.5,330.5 210.5,330.5C 210.5,320.5 210.5,310.5 210.5,300.5C 220.5,300.5 230.5,300.5 240.5,300.5 Z"/></g>
<g><path style="opacity:1" fill="#460c68" d="M 210.5,330.5 C 210.5,340.5 210.5,350.5 210.5,360.5C 200.5,360.5 190.5,360.5 180.5,360.5C 180.5,350.5 180.5,340.5 180.5,330.5C 190.5,330.5 200.5,330.5 210.5,330.5 Z"/></g>
<g><path style="opacity:0.757" fill="#7d337c" d="M 149.5,330.5 C 150.494,340.319 150.827,350.319 150.5,360.5C 160.5,360.5 170.5,360.5 180.5,360.5C 190.5,360.5 200.5,360.5 210.5,360.5C 200.681,361.494 190.681,361.827 180.5,361.5C 170.167,361.5 159.833,361.5 149.5,361.5C 149.5,351.167 149.5,340.833 149.5,330.5 Z"/></g>
<g><path style="opacity:0.757" fill="#772e7a" d="M 361.5,330.5 C 361.5,340.833 361.5,351.167 361.5,361.5C 351.167,361.5 340.833,361.5 330.5,361.5C 340.319,360.506 350.319,360.173 360.5,360.5C 360.173,350.319 360.506,340.319 361.5,330.5 Z"/></g>
<g><path style="opacity:0.961" fill="#460c68" d="M 149.5,361.5 C 159.833,361.5 170.167,361.5 180.5,361.5C 180.5,371.167 180.5,380.833 180.5,390.5C 190.5,390.5 200.5,390.5 210.5,390.5C 210.5,400.833 210.5,411.167 210.5,421.5C 220.5,421.5 230.5,421.5 240.5,421.5C 240.5,431.5 240.5,441.5 240.5,451.5C 250.5,451.5 260.5,451.5 270.5,451.5C 270.5,441.5 270.5,431.5 270.5,421.5C 280.5,421.5 290.5,421.5 300.5,421.5C 300.5,411.167 300.5,400.833 300.5,390.5C 310.5,390.5 320.5,390.5 330.5,390.5C 330.5,380.833 330.5,371.167 330.5,361.5C 340.833,361.5 351.167,361.5 361.5,361.5C 361.5,371.5 361.5,381.5 361.5,391.5C 351.5,391.5 341.5,391.5 331.5,391.5C 331.5,401.5 331.5,411.5 331.5,421.5C 321.5,421.5 311.5,421.5 301.5,421.5C 301.5,431.5 301.5,441.5 301.5,451.5C 291.5,451.5 281.5,451.5 271.5,451.5C 271.5,461.5 271.5,471.5 271.5,481.5C 260.833,481.5 250.167,481.5 239.5,481.5C 239.5,471.5 239.5,461.5 239.5,451.5C 229.5,451.5 219.5,451.5 209.5,451.5C 209.5,441.5 209.5,431.5 209.5,421.5C 199.5,421.5 189.5,421.5 179.5,421.5C 179.5,411.5 179.5,401.5 179.5,391.5C 169.833,391.5 160.167,391.5 150.5,391.5C 150.5,401.5 150.5,411.5 150.5,421.5C 140.5,421.5 130.5,421.5 120.5,421.5C 120.5,441.5 120.5,461.5 120.5,481.5C 110.167,481.5 99.8333,481.5 89.5,481.5C 89.5,471.5 89.5,461.5 89.5,451.5C 79.5,451.5 69.5,451.5 59.5,451.5C 59.5,441.167 59.5,430.833 59.5,420.5C 79.5,420.5 99.5,420.5 119.5,420.5C 119.5,410.5 119.5,400.5 119.5,390.5C 129.5,390.5 139.5,390.5 149.5,390.5C 149.5,380.833 149.5,371.167 149.5,361.5 Z"/></g>
</svg>
